<?xml version="1.0" encoding="UTF-8" standalone="no"?>
<!-- Created with Inkscape (http://www.inkscape.org/) -->

<svg
   width="32"
   height="32"
   viewBox="0 0 32 32"
   version="1.1"
   id="svg1"
   inkscape:version="1.4.4 (1:1.4.4+202605061436+dcaf3e7d9e)"
   sodipodi:docname="games1.svg"
   xmlns:inkscape="http://www.inkscape.org/namespaces/inkscape"
   xmlns:sodipodi="http://sodipodi.sourceforge.net/DTD/sodipodi-0.dtd"
   xmlns="http://www.w3.org/2000/svg"
   xmlns:svg="http://www.w3.org/2000/svg">
  <sodipodi:namedview
     id="namedview1"
     pagecolor="#ffffff"
     bordercolor="#000000"
     borderopacity="0.25"
     inkscape:showpageshadow="2"
     inkscape:pageopacity="0.0"
     inkscape:pagecheckerboard="0"
     inkscape:deskcolor="#d1d1d1"
     inkscape:document-units="px"
     showgrid="true"
     inkscape:zoom="20.48"
     inkscape:cx="11.767578"
     inkscape:cy="16.28418"
     inkscape:window-width="1920"
     inkscape:window-height="1043"
     inkscape:window-x="0"
     inkscape:window-y="0"
     inkscape:window-maximized="1"
     inkscape:current-layer="layer1">
    <inkscape:grid
       id="grid1"
       units="px"
       originx="0"
       originy="0"
       spacingx="1"
       spacingy="1"
       empcolor="#0099e5"
       empopacity="0.30196078"
       color="#0099e5"
       opacity="0.14901961"
       empspacing="5"
       enabled="true"
       visible="true" />
  </sodipodi:namedview>
  <defs
     id="defs1" />
  <g
     inkscape:label="Layer 1"
     inkscape:groupmode="layer"
     id="layer1">
    <g
       id="g2"
       transform="matrix(1.7431174,0,0,1.7431174,-1.431174,-1.0510118)">
      <path
         d="M 15.9,5.5 C 15.3,4.5 14.2,4 13,4 H 7 C 5.8,4 4.7,4.5 4.1,5.5 1.8,9 1.3,14.3 2.9,15.4 c 1.6,1.1 5.2,-3.7 7.1,-3.7 1.9,0 5.4,4.8 7.1,3.7 C 18.7,14.3 18.2,9 15.9,5.5 Z M 8,9 H 7 v 1 H 6 V 9 H 5 V 8 H 6 V 7 h 1 v 1 h 1 z m 5.4,0.5 C 13.4,10 13,10.4 12.5,10.4 12,10.4 11.6,10 11.6,9.5 11.6,9 12,8.6 12.5,8.6 13,8.6 13.4,9 13.4,9.5 Z m 1.9,-2 c 0,0.5 -0.4,0.9 -0.9,0.9 -0.5,0 -0.9,-0.4 -0.9,-0.9 0,-0.5 0.4,-0.9 0.9,-0.9 0.5,0 0.9,0.4 0.9,0.9 z"
         id="path1"
         style="fill-opacity:1;fill:currentColor;" />
    </g>
  </g>
</svg>
